<svg xmlns="http://www.w3.org/2000/svg"
     xmlns:xlink="http://www.w3.org/1999/xlink"
     width="32" height="32"><defs><linearGradient
        id="a"><stop offset="0" stop-color="#000092"/><stop
        offset="1" stop-color="#ff00f3"/></linearGradient>
    <linearGradient id="b" x1="1" x2="29" y1="16" y2="16" gradientUnits="userSpaceOnUse"
                    xlink:href="#a"/></defs><path style="line-height:normal;
                    text-indent:0;text-align:start;text-decoration-line:none;text-decoration-sty
                    le:solid;text-decoration-color:#000;text-transform:none;block-progression:tb;
                    isolation:auto;mix-blend-mode:normal" fill="url(#b)" d="M16 3.994c-2.468 0-4.
                    479 2.022-4.479 4.5s2.01 4.5 4.479 4.5c2.468 0 4.477-2.022 4.477-4.5s-2.0
                    09-4.5-4.477-4.5zm0 1a3.48 3.48 0 0 1 3.477 3.5 3.48 3.48 0 0 1-3.477 3.5 3.48
                    2 3.482 0 0 1-3.479-3.5c0-1.94 1.554-3.5 3.479-3.5zM7.5 7.32c-1.963 0-3.56 1.615-
                    3.56 3.588s1.597 3.588 3.56 3.588 3.56-1.615 3.56-3.588S9.464 7.32 7.5 7.32zm0 1c1
                    .417 0 2.56 1.15 2.56 2.588a2.567 2.567 0 0 1-2.56 2.588 2.567 2.567 0 0 1-2.56-2.
                    588A2.567 2.567 0 0 1 7.5 8.32zm18.168 2.805a4.98 4.98 0 0 0-3.973 2.502c-.205.36-.
                    345.738-.455 1.121-.187-.105-.379-.2-.578-.285a5.934 5.934 0 0 0-2.324-.469H13.66a5.
                    908 5.908 0 0 0-3.484 1.135 4.639 4.639 0 0 0-.875-.092H5.699v.002C3.102 15.04 1 17.16
                     1 19.771v2.72a.5.5 0 0 0 .5.5h2.367a.5.5 0 0 0 .248 0h3.586v.507a.5.5 0 0 0 .5.5h3.1a.
                     5.5 0 0 0 .28 0h8.202l-.29.508-.737 1.289c-.4.701-.153 1.609.545 2.016a.5.5 0 0 0 .002
                     0 1.474 1.474 0 0 0 2.008-.536l2.566-4.494.02.012a.5.5 0 0 0 .685-.184l.834-1.463a4.982
                     4.982 0 0 0 4.918-2.48c1.373-2.403.553-5.492-1.828-6.88a4.91 4.91 0 0 0-2.838-.661zm.068
                     .996a3.944 3.944 0 0 1 2.274.533c1.912 1.116 2.565 3.572 1.459 5.508a3.962 3.962 0 0 1-5.
                     451 1.48c-1.912-1.115-2.566-3.575-1.46-5.511a3.977 3.977 0 0 1 3.178-2.01zM13.66 14.994h.998
                     l-.367 5.334a.5.5 0 0 0 .158.399l1.21 1.132a.5.5 0 0 0 .683 0l1.207-1.132a.5.5 0 0 0 .158-.3
                     99l-.365-5.334h.996a4.978 4.978 0 0 1 1.933.39c.278.118.539.265.788.428A5.1 5.1 0 0 0 22 19.1
                     25l-.852 1.494a.5.5 0 0 0 .178.678l-.385.672v-1.475a.5.5 0 0 0-.507-.506.5.5 0 0 0-.493.506v2.5
                     24a.5.5 0 0 0-.144-.02H11.94v-2.504a.5.5 0 0 0-.507-.506.5.5 0 0 0-.493.506v2.504h-2.24v-3.021a4.
                     95 4.95 0 0 1 4.96-4.983zm2 0h.678l.355 5.166-.693.649-.693-.649.353-5.166zM5.7 16.04h3.48A5.969 5.969 0 0 0 7.7 19.977v2.013H4.492v-1.818a.5.5 0 0 0-.506-.508.5.5 0 0 0-.494.508v1.818H2v-2.219c0-2.078 1.643-3.732 3.7-3.732zM22.7 19.912l.002.002a4.983 4.983 0 0 0 1.695.998l-.435.764-1.701-.992.44-.772zm-.51 1.889.823.478-2.57 4.5c-.133.232-.4.303-.64.166a.476.476 0 0 1-.179-.654l.736-1.289.385-.672.451-.79.533-.935.461-.804z" color="#000" /></svg>